<svg xmlns="http://www.w3.org/2000/svg" width="1200" height="900" viewBox="0 0 1200 900" role="img" aria-labelledby="title desc">
<title id="title">Family Tree full map product preview</title>
<desc id="desc">A fitted family map with profile cards across five generations, search, language, and zoom controls.</desc>
<defs>
  <linearGradient id="paper" x1="0" y1="0" x2="1" y2="1"><stop stop-color="#f8f4e8"/><stop offset="1" stop-color="#eee4cc"/></linearGradient>
  <filter id="shadow" x="-30%" y="-30%" width="160%" height="170%"><feDropShadow dx="0" dy="7" stdDeviation="8" flood-color="#31575b" flood-opacity=".12"/></filter>
</defs>
<rect width="1200" height="900" rx="28" fill="url(#paper)"/>
<rect x="0" y="0" width="1200" height="144" rx="28" fill="#fffdf7"/>
<path d="M0 116H1200" stroke="#d8d1be"/>
<circle cx="1140" cy="54" r="23" fill="none" stroke="#c9a445" stroke-width="7"/>
<path d="M1140 42c-12 10-17 23-3 31 11-3 17-12 17-23-8 1-11-2-14-8Z" fill="#0e5158"/>
<text x="1094" y="63" text-anchor="end" font-family="Georgia, serif" font-size="29" font-weight="700" fill="#2e2922">شجره‌نامه‌ی خانواده مشگی</text>
<rect x="28" y="22" width="720" height="54" rx="13" fill="#fff" stroke="#d5cfbd"/>
<text x="718" y="55" text-anchor="end" font-family="Arial, sans-serif" font-size="17" fill="#817a6c">جستجوی نام، نسبت، شهر...</text>
<circle cx="50" cy="49" r="8" fill="none" stroke="#0e5158" stroke-width="2"/><path d="m56 55 8 8" stroke="#0e5158" stroke-width="2"/>
<rect x="28" y="88" width="89" height="38" rx="8" fill="#fff" stroke="#d5cfbd"/><text x="72" y="113" text-anchor="middle" font-family="Arial, sans-serif" font-size="14" font-weight="700" fill="#2e2922">English</text>
<g transform="translate(1005 86)" fill="#fff" stroke="#d5cfbd"><rect x="0" width="48" height="40" rx="8"/><rect x="54" width="48" height="40" rx="8"/><rect x="108" width="48" height="40" rx="8"/></g>
<g font-family="Arial, sans-serif" font-size="18" font-weight="700" fill="#0e5158" text-anchor="middle"><text x="1029" y="112">+</text><text x="1083" y="112">◎</text><text x="1137" y="112">−</text></g>
<g transform="translate(940 164)"><rect width="230" height="56" rx="13" fill="#fffdf7" filter="url(#shadow)"/><rect x="4" y="4" width="110" height="48" rx="10" fill="#4d9294"/><text x="59" y="36" text-anchor="middle" font-family="Arial, sans-serif" font-size="16" font-weight="700" fill="#fff">درخت</text><text x="171" y="36" text-anchor="middle" font-family="Arial, sans-serif" font-size="16" font-weight="700" fill="#6f685d">شاخه‌ها</text></g>
<g font-family="Arial, sans-serif" font-size="12" fill="#7d7668"><text x="25" y="286">1</text><text x="25" y="410">2</text><text x="25" y="534">3</text><text x="25" y="658">4</text><text x="25" y="782">5</text></g>
<path d="M548.0 303V329.0H250.0V355" fill="none" stroke="#94aaa5" stroke-width="1.4" opacity=".72"/><path d="M548.0 303V329.0H350.0V355" fill="none" stroke="#94aaa5" stroke-width="1.4" opacity=".72"/><path d="M548.0 303V329.0H450.0V355" fill="none" stroke="#94aaa5" stroke-width="1.4" opacity=".72"/><path d="M548.0 303V329.0H550.0V355" fill="none" stroke="#94aaa5" stroke-width="1.4" opacity=".72"/><path d="M652.0 303V329.0H650.0V355" fill="none" stroke="#94aaa5" stroke-width="1.4" opacity=".72"/><path d="M652.0 303V329.0H750.0V355" fill="none" stroke="#94aaa5" stroke-width="1.4" opacity=".72"/><path d="M652.0 303V329.0H850.0V355" fill="none" stroke="#94aaa5" stroke-width="1.4" opacity=".72"/><path d="M652.0 303V329.0H950.0V355" fill="none" stroke="#94aaa5" stroke-width="1.4" opacity=".72"/><path d="M250.0 413V444.0H80.0V475" fill="none" stroke="#94aaa5" stroke-width="1.4" opacity=".72"/><path d="M250.0 413V444.0H141.2V475" fill="none" stroke="#94aaa5" stroke-width="1.4" opacity=".72"/><path d="M250.0 413V444.0H202.4V475" fill="none" stroke="#94aaa5" stroke-width="1.4" opacity=".72"/><path d="M350.0 413V444.0H263.5V475" fill="none" stroke="#94aaa5" stroke-width="1.4" opacity=".72"/><path d="M350.0 413V444.0H324.7V475" fill="none" stroke="#94aaa5" stroke-width="1.4" opacity=".72"/><path d="M450.0 413V444.0H385.9V475" fill="none" stroke="#94aaa5" stroke-width="1.4" opacity=".72"/><path d="M450.0 413V444.0H447.1V475" fill="none" stroke="#94aaa5" stroke-width="1.4" opacity=".72"/><path d="M550.0 413V444.0H508.2V475" fill="none" stroke="#94aaa5" stroke-width="1.4" opacity=".72"/><path d="M550.0 413V444.0H569.4V475" fill="none" stroke="#94aaa5" stroke-width="1.4" opacity=".72"/><path d="M650.0 413V444.0H630.6V475" fill="none" stroke="#94aaa5" stroke-width="1.4" opacity=".72"/><path d="M650.0 413V444.0H691.8V475" fill="none" stroke="#94aaa5" stroke-width="1.4" opacity=".72"/><path d="M650.0 413V444.0H752.9V475" fill="none" stroke="#94aaa5" stroke-width="1.4" opacity=".72"/><path d="M750.0 413V444.0H814.1V475" fill="none" stroke="#94aaa5" stroke-width="1.4" opacity=".72"/><path d="M750.0 413V444.0H875.3V475" fill="none" stroke="#94aaa5" stroke-width="1.4" opacity=".72"/><path d="M850.0 413V444.0H936.5V475" fill="none" stroke="#94aaa5" stroke-width="1.4" opacity=".72"/><path d="M850.0 413V444.0H997.6V475" fill="none" stroke="#94aaa5" stroke-width="1.4" opacity=".72"/><path d="M950.0 413V444.0H1058.8V475" fill="none" stroke="#94aaa5" stroke-width="1.4" opacity=".72"/><path d="M950.0 413V444.0H1120.0V475" fill="none" stroke="#94aaa5" stroke-width="1.4" opacity=".72"/><path d="M80.0 533V566.5H45.0V600" fill="none" stroke="#94aaa5" stroke-width="1.4" opacity=".72"/><path d="M80.0 533V566.5H93.3V600" fill="none" stroke="#94aaa5" stroke-width="1.4" opacity=".72"/><path d="M141.2 533V566.5H141.5V600" fill="none" stroke="#94aaa5" stroke-width="1.4" opacity=".72"/><path d="M202.4 533V566.5H189.8V600" fill="none" stroke="#94aaa5" stroke-width="1.4" opacity=".72"/><path d="M263.5 533V566.5H238.0V600" fill="none" stroke="#94aaa5" stroke-width="1.4" opacity=".72"/><path d="M263.5 533V566.5H286.3V600" fill="none" stroke="#94aaa5" stroke-width="1.4" opacity=".72"/><path d="M324.7 533V566.5H334.6V600" fill="none" stroke="#94aaa5" stroke-width="1.4" opacity=".72"/><path d="M385.9 533V566.5H382.8V600" fill="none" stroke="#94aaa5" stroke-width="1.4" opacity=".72"/><path d="M447.1 533V566.5H431.1V600" fill="none" stroke="#94aaa5" stroke-width="1.4" opacity=".72"/><path d="M447.1 533V566.5H479.3V600" fill="none" stroke="#94aaa5" stroke-width="1.4" opacity=".72"/><path d="M508.2 533V566.5H527.6V600" fill="none" stroke="#94aaa5" stroke-width="1.4" opacity=".72"/><path d="M569.4 533V566.5H575.9V600" fill="none" stroke="#94aaa5" stroke-width="1.4" opacity=".72"/><path d="M630.6 533V566.5H624.1V600" fill="none" stroke="#94aaa5" stroke-width="1.4" opacity=".72"/><path d="M630.6 533V566.5H672.4V600" fill="none" stroke="#94aaa5" stroke-width="1.4" opacity=".72"/><path d="M691.8 533V566.5H720.7V600" fill="none" stroke="#94aaa5" stroke-width="1.4" opacity=".72"/><path d="M752.9 533V566.5H768.9V600" fill="none" stroke="#94aaa5" stroke-width="1.4" opacity=".72"/><path d="M814.1 533V566.5H817.2V600" fill="none" stroke="#94aaa5" stroke-width="1.4" opacity=".72"/><path d="M814.1 533V566.5H865.4V600" fill="none" stroke="#94aaa5" stroke-width="1.4" opacity=".72"/><path d="M875.3 533V566.5H913.7V600" fill="none" stroke="#94aaa5" stroke-width="1.4" opacity=".72"/><path d="M936.5 533V566.5H962.0V600" fill="none" stroke="#94aaa5" stroke-width="1.4" opacity=".72"/><path d="M997.6 533V566.5H1010.2V600" fill="none" stroke="#94aaa5" stroke-width="1.4" opacity=".72"/><path d="M997.6 533V566.5H1058.5V600" fill="none" stroke="#94aaa5" stroke-width="1.4" opacity=".72"/><path d="M1058.8 533V566.5H1106.7V600" fill="none" stroke="#94aaa5" stroke-width="1.4" opacity=".72"/><path d="M1120.0 533V566.5H1155.0V600" fill="none" stroke="#94aaa5" stroke-width="1.4" opacity=".72"/><path d="M45.0 658V694.0H150.0V730" fill="none" stroke="#94aaa5" stroke-width="1.4" opacity=".72"/><path d="M141.5 658V694.0H240.0V730" fill="none" stroke="#94aaa5" stroke-width="1.4" opacity=".72"/><path d="M238.0 658V694.0H330.0V730" fill="none" stroke="#94aaa5" stroke-width="1.4" opacity=".72"/><path d="M334.6 658V694.0H420.0V730" fill="none" stroke="#94aaa5" stroke-width="1.4" opacity=".72"/><path d="M431.1 658V694.0H510.0V730" fill="none" stroke="#94aaa5" stroke-width="1.4" opacity=".72"/><path d="M527.6 658V694.0H600.0V730" fill="none" stroke="#94aaa5" stroke-width="1.4" opacity=".72"/><path d="M672.4 658V694.0H690.0V730" fill="none" stroke="#94aaa5" stroke-width="1.4" opacity=".72"/><path d="M768.9 658V694.0H780.0V730" fill="none" stroke="#94aaa5" stroke-width="1.4" opacity=".72"/><path d="M865.4 658V694.0H870.0V730" fill="none" stroke="#94aaa5" stroke-width="1.4" opacity=".72"/><path d="M962.0 658V694.0H960.0V730" fill="none" stroke="#94aaa5" stroke-width="1.4" opacity=".72"/><path d="M1058.5 658V694.0H1050.0V730" fill="none" stroke="#94aaa5" stroke-width="1.4" opacity=".72"/><g transform="translate(519.0 245)" filter="url(#shadow)"><rect width="58" height="58" rx="5" fill="#fffdf8" stroke="#d7d0bd"/><rect x="5" y="5" width="48" height="31" rx="3" fill="#9e6f5f" opacity=".92"/><circle cx="29.0" cy="17" r="7" fill="#f3d0b0"/><path d="M20.0 28q9-9 18 0v8H20.0Z" fill="#213f43" opacity=".85"/><rect x="8" y="43" width="42" height="3" rx="1.5" fill="#5e584d" opacity=".55"/><rect x="12" y="50" width="34" height="2" rx="1" fill="#a39b8b" opacity=".55"/></g><g transform="translate(623.0 245)" filter="url(#shadow)"><rect width="58" height="58" rx="5" fill="#fffdf8" stroke="#d7d0bd"/><rect x="5" y="5" width="48" height="31" rx="3" fill="#4d7d7c" opacity=".92"/><circle cx="29.0" cy="17" r="7" fill="#f3d0b0"/><path d="M20.0 28q9-9 18 0v8H20.0Z" fill="#213f43" opacity=".85"/><rect x="8" y="43" width="42" height="3" rx="1.5" fill="#5e584d" opacity=".55"/><rect x="12" y="50" width="34" height="2" rx="1" fill="#a39b8b" opacity=".55"/></g><g transform="translate(223.0 355)" filter="url(#shadow)"><rect width="54" height="58" rx="5" fill="#fffdf8" stroke="#d7d0bd"/><rect x="5" y="5" width="44" height="31" rx="3" fill="#7d6a97" opacity=".92"/><circle cx="27.0" cy="17" r="7" fill="#f3d0b0"/><path d="M18.0 28q9-9 18 0v8H18.0Z" fill="#213f43" opacity=".85"/><rect x="8" y="43" width="38" height="3" rx="1.5" fill="#5e584d" opacity=".55"/><rect x="12" y="50" width="30" height="2" rx="1" fill="#a39b8b" opacity=".55"/></g><g transform="translate(323.0 355)" filter="url(#shadow)"><rect width="54" height="58" rx="5" fill="#fffdf8" stroke="#d7d0bd"/><rect x="5" y="5" width="44" height="31" rx="3" fill="#b67969" opacity=".92"/><circle cx="27.0" cy="17" r="7" fill="#f3d0b0"/><path d="M18.0 28q9-9 18 0v8H18.0Z" fill="#213f43" opacity=".85"/><rect x="8" y="43" width="38" height="3" rx="1.5" fill="#5e584d" opacity=".55"/><rect x="12" y="50" width="30" height="2" rx="1" fill="#a39b8b" opacity=".55"/></g><g transform="translate(423.0 355)" filter="url(#shadow)"><rect width="54" height="58" rx="5" fill="#fffdf8" stroke="#d7d0bd"/><rect x="5" y="5" width="44" height="31" rx="3" fill="#5f879e" opacity=".92"/><circle cx="27.0" cy="17" r="7" fill="#f3d0b0"/><path d="M18.0 28q9-9 18 0v8H18.0Z" fill="#213f43" opacity=".85"/><rect x="8" y="43" width="38" height="3" rx="1.5" fill="#5e584d" opacity=".55"/><rect x="12" y="50" width="30" height="2" rx="1" fill="#a39b8b" opacity=".55"/></g><g transform="translate(523.0 355)" filter="url(#shadow)"><rect width="54" height="58" rx="5" fill="#fffdf8" stroke="#d7d0bd"/><rect x="5" y="5" width="44" height="31" rx="3" fill="#8b8060" opacity=".92"/><circle cx="27.0" cy="17" r="7" fill="#f3d0b0"/><path d="M18.0 28q9-9 18 0v8H18.0Z" fill="#213f43" opacity=".85"/><rect x="8" y="43" width="38" height="3" rx="1.5" fill="#5e584d" opacity=".55"/><rect x="12" y="50" width="30" height="2" rx="1" fill="#a39b8b" opacity=".55"/></g><g transform="translate(623.0 355)" filter="url(#shadow)"><rect width="54" height="58" rx="5" fill="#fffdf8" stroke="#d7d0bd"/><rect x="5" y="5" width="44" height="31" rx="3" fill="#57816a" opacity=".92"/><circle cx="27.0" cy="17" r="7" fill="#f3d0b0"/><path d="M18.0 28q9-9 18 0v8H18.0Z" fill="#213f43" opacity=".85"/><rect x="8" y="43" width="38" height="3" rx="1.5" fill="#5e584d" opacity=".55"/><rect x="12" y="50" width="30" height="2" rx="1" fill="#a39b8b" opacity=".55"/></g><g transform="translate(723.0 355)" filter="url(#shadow)"><rect width="54" height="58" rx="5" fill="#fffdf8" stroke="#d7d0bd"/><rect x="5" y="5" width="44" height="31" rx="3" fill="#9e6f5f" opacity=".92"/><circle cx="27.0" cy="17" r="7" fill="#f3d0b0"/><path d="M18.0 28q9-9 18 0v8H18.0Z" fill="#213f43" opacity=".85"/><rect x="8" y="43" width="38" height="3" rx="1.5" fill="#5e584d" opacity=".55"/><rect x="12" y="50" width="30" height="2" rx="1" fill="#a39b8b" opacity=".55"/></g><g transform="translate(823.0 355)" filter="url(#shadow)"><rect width="54" height="58" rx="5" fill="#fffdf8" stroke="#d7d0bd"/><rect x="5" y="5" width="44" height="31" rx="3" fill="#4d7d7c" opacity=".92"/><circle cx="27.0" cy="17" r="7" fill="#f3d0b0"/><path d="M18.0 28q9-9 18 0v8H18.0Z" fill="#213f43" opacity=".85"/><rect x="8" y="43" width="38" height="3" rx="1.5" fill="#5e584d" opacity=".55"/><rect x="12" y="50" width="30" height="2" rx="1" fill="#a39b8b" opacity=".55"/></g><g transform="translate(923.0 355)" filter="url(#shadow)"><rect width="54" height="58" rx="5" fill="#fffdf8" stroke="#d7d0bd"/><rect x="5" y="5" width="44" height="31" rx="3" fill="#c5a04d" opacity=".92"/><circle cx="27.0" cy="17" r="7" fill="#f3d0b0"/><path d="M18.0 28q9-9 18 0v8H18.0Z" fill="#213f43" opacity=".85"/><rect x="8" y="43" width="38" height="3" rx="1.5" fill="#5e584d" opacity=".55"/><rect x="12" y="50" width="30" height="2" rx="1" fill="#a39b8b" opacity=".55"/></g><g transform="translate(56.0 475)" filter="url(#shadow)"><rect width="48" height="58" rx="5" fill="#fffdf8" stroke="#d7d0bd"/><rect x="5" y="5" width="38" height="31" rx="3" fill="#8b8060" opacity=".92"/><circle cx="24.0" cy="17" r="7" fill="#f3d0b0"/><path d="M15.0 28q9-9 18 0v8H15.0Z" fill="#213f43" opacity=".85"/><rect x="8" y="43" width="32" height="3" rx="1.5" fill="#5e584d" opacity=".55"/><rect x="12" y="50" width="24" height="2" rx="1" fill="#a39b8b" opacity=".55"/></g><g transform="translate(117.2 475)" filter="url(#shadow)"><rect width="48" height="58" rx="5" fill="#fffdf8" stroke="#d7d0bd"/><rect x="5" y="5" width="38" height="31" rx="3" fill="#57816a" opacity=".92"/><circle cx="24.0" cy="17" r="7" fill="#f3d0b0"/><path d="M15.0 28q9-9 18 0v8H15.0Z" fill="#213f43" opacity=".85"/><rect x="8" y="43" width="32" height="3" rx="1.5" fill="#5e584d" opacity=".55"/><rect x="12" y="50" width="24" height="2" rx="1" fill="#a39b8b" opacity=".55"/></g><g transform="translate(178.4 475)" filter="url(#shadow)"><rect width="48" height="58" rx="5" fill="#fffdf8" stroke="#d7d0bd"/><rect x="5" y="5" width="38" height="31" rx="3" fill="#9e6f5f" opacity=".92"/><circle cx="24.0" cy="17" r="7" fill="#f3d0b0"/><path d="M15.0 28q9-9 18 0v8H15.0Z" fill="#213f43" opacity=".85"/><rect x="8" y="43" width="32" height="3" rx="1.5" fill="#5e584d" opacity=".55"/><rect x="12" y="50" width="24" height="2" rx="1" fill="#a39b8b" opacity=".55"/></g><g transform="translate(239.5 475)" filter="url(#shadow)"><rect width="48" height="58" rx="5" fill="#fffdf8" stroke="#d7d0bd"/><rect x="5" y="5" width="38" height="31" rx="3" fill="#4d7d7c" opacity=".92"/><circle cx="24.0" cy="17" r="7" fill="#f3d0b0"/><path d="M15.0 28q9-9 18 0v8H15.0Z" fill="#213f43" opacity=".85"/><rect x="8" y="43" width="32" height="3" rx="1.5" fill="#5e584d" opacity=".55"/><rect x="12" y="50" width="24" height="2" rx="1" fill="#a39b8b" opacity=".55"/></g><g transform="translate(300.7 475)" filter="url(#shadow)"><rect width="48" height="58" rx="5" fill="#fffdf8" stroke="#d7d0bd"/><rect x="5" y="5" width="38" height="31" rx="3" fill="#c5a04d" opacity=".92"/><circle cx="24.0" cy="17" r="7" fill="#f3d0b0"/><path d="M15.0 28q9-9 18 0v8H15.0Z" fill="#213f43" opacity=".85"/><rect x="8" y="43" width="32" height="3" rx="1.5" fill="#5e584d" opacity=".55"/><rect x="12" y="50" width="24" height="2" rx="1" fill="#a39b8b" opacity=".55"/></g><g transform="translate(361.9 475)" filter="url(#shadow)"><rect width="48" height="58" rx="5" fill="#fffdf8" stroke="#d7d0bd"/><rect x="5" y="5" width="38" height="31" rx="3" fill="#7d6a97" opacity=".92"/><circle cx="24.0" cy="17" r="7" fill="#f3d0b0"/><path d="M15.0 28q9-9 18 0v8H15.0Z" fill="#213f43" opacity=".85"/><rect x="8" y="43" width="32" height="3" rx="1.5" fill="#5e584d" opacity=".55"/><rect x="12" y="50" width="24" height="2" rx="1" fill="#a39b8b" opacity=".55"/></g><g transform="translate(423.1 475)" filter="url(#shadow)"><rect width="48" height="58" rx="5" fill="#fffdf8" stroke="#d7d0bd"/><rect x="5" y="5" width="38" height="31" rx="3" fill="#b67969" opacity=".92"/><circle cx="24.0" cy="17" r="7" fill="#f3d0b0"/><path d="M15.0 28q9-9 18 0v8H15.0Z" fill="#213f43" opacity=".85"/><rect x="8" y="43" width="32" height="3" rx="1.5" fill="#5e584d" opacity=".55"/><rect x="12" y="50" width="24" height="2" rx="1" fill="#a39b8b" opacity=".55"/></g><g transform="translate(484.2 475)" filter="url(#shadow)"><rect width="48" height="58" rx="5" fill="#fffdf8" stroke="#d7d0bd"/><rect x="5" y="5" width="38" height="31" rx="3" fill="#5f879e" opacity=".92"/><circle cx="24.0" cy="17" r="7" fill="#f3d0b0"/><path d="M15.0 28q9-9 18 0v8H15.0Z" fill="#213f43" opacity=".85"/><rect x="8" y="43" width="32" height="3" rx="1.5" fill="#5e584d" opacity=".55"/><rect x="12" y="50" width="24" height="2" rx="1" fill="#a39b8b" opacity=".55"/></g><g transform="translate(545.4 475)" filter="url(#shadow)"><rect width="48" height="58" rx="5" fill="#fffdf8" stroke="#d7d0bd"/><rect x="5" y="5" width="38" height="31" rx="3" fill="#8b8060" opacity=".92"/><circle cx="24.0" cy="17" r="7" fill="#f3d0b0"/><path d="M15.0 28q9-9 18 0v8H15.0Z" fill="#213f43" opacity=".85"/><rect x="8" y="43" width="32" height="3" rx="1.5" fill="#5e584d" opacity=".55"/><rect x="12" y="50" width="24" height="2" rx="1" fill="#a39b8b" opacity=".55"/></g><g transform="translate(606.6 475)" filter="url(#shadow)"><rect width="48" height="58" rx="5" fill="#fffdf8" stroke="#d7d0bd"/><rect x="5" y="5" width="38" height="31" rx="3" fill="#57816a" opacity=".92"/><circle cx="24.0" cy="17" r="7" fill="#f3d0b0"/><path d="M15.0 28q9-9 18 0v8H15.0Z" fill="#213f43" opacity=".85"/><rect x="8" y="43" width="32" height="3" rx="1.5" fill="#5e584d" opacity=".55"/><rect x="12" y="50" width="24" height="2" rx="1" fill="#a39b8b" opacity=".55"/></g><g transform="translate(667.8 475)" filter="url(#shadow)"><rect width="48" height="58" rx="5" fill="#fffdf8" stroke="#d7d0bd"/><rect x="5" y="5" width="38" height="31" rx="3" fill="#9e6f5f" opacity=".92"/><circle cx="24.0" cy="17" r="7" fill="#f3d0b0"/><path d="M15.0 28q9-9 18 0v8H15.0Z" fill="#213f43" opacity=".85"/><rect x="8" y="43" width="32" height="3" rx="1.5" fill="#5e584d" opacity=".55"/><rect x="12" y="50" width="24" height="2" rx="1" fill="#a39b8b" opacity=".55"/></g><g transform="translate(728.9 475)" filter="url(#shadow)"><rect width="48" height="58" rx="5" fill="#fffdf8" stroke="#d7d0bd"/><rect x="5" y="5" width="38" height="31" rx="3" fill="#4d7d7c" opacity=".92"/><circle cx="24.0" cy="17" r="7" fill="#f3d0b0"/><path d="M15.0 28q9-9 18 0v8H15.0Z" fill="#213f43" opacity=".85"/><rect x="8" y="43" width="32" height="3" rx="1.5" fill="#5e584d" opacity=".55"/><rect x="12" y="50" width="24" height="2" rx="1" fill="#a39b8b" opacity=".55"/></g><g transform="translate(790.1 475)" filter="url(#shadow)"><rect width="48" height="58" rx="5" fill="#fffdf8" stroke="#d7d0bd"/><rect x="5" y="5" width="38" height="31" rx="3" fill="#c5a04d" opacity=".92"/><circle cx="24.0" cy="17" r="7" fill="#f3d0b0"/><path d="M15.0 28q9-9 18 0v8H15.0Z" fill="#213f43" opacity=".85"/><rect x="8" y="43" width="32" height="3" rx="1.5" fill="#5e584d" opacity=".55"/><rect x="12" y="50" width="24" height="2" rx="1" fill="#a39b8b" opacity=".55"/></g><g transform="translate(851.3 475)" filter="url(#shadow)"><rect width="48" height="58" rx="5" fill="#fffdf8" stroke="#d7d0bd"/><rect x="5" y="5" width="38" height="31" rx="3" fill="#7d6a97" opacity=".92"/><circle cx="24.0" cy="17" r="7" fill="#f3d0b0"/><path d="M15.0 28q9-9 18 0v8H15.0Z" fill="#213f43" opacity=".85"/><rect x="8" y="43" width="32" height="3" rx="1.5" fill="#5e584d" opacity=".55"/><rect x="12" y="50" width="24" height="2" rx="1" fill="#a39b8b" opacity=".55"/></g><g transform="translate(912.5 475)" filter="url(#shadow)"><rect width="48" height="58" rx="5" fill="#fffdf8" stroke="#d7d0bd"/><rect x="5" y="5" width="38" height="31" rx="3" fill="#b67969" opacity=".92"/><circle cx="24.0" cy="17" r="7" fill="#f3d0b0"/><path d="M15.0 28q9-9 18 0v8H15.0Z" fill="#213f43" opacity=".85"/><rect x="8" y="43" width="32" height="3" rx="1.5" fill="#5e584d" opacity=".55"/><rect x="12" y="50" width="24" height="2" rx="1" fill="#a39b8b" opacity=".55"/></g><g transform="translate(973.6 475)" filter="url(#shadow)"><rect width="48" height="58" rx="5" fill="#fffdf8" stroke="#d7d0bd"/><rect x="5" y="5" width="38" height="31" rx="3" fill="#5f879e" opacity=".92"/><circle cx="24.0" cy="17" r="7" fill="#f3d0b0"/><path d="M15.0 28q9-9 18 0v8H15.0Z" fill="#213f43" opacity=".85"/><rect x="8" y="43" width="32" height="3" rx="1.5" fill="#5e584d" opacity=".55"/><rect x="12" y="50" width="24" height="2" rx="1" fill="#a39b8b" opacity=".55"/></g><g transform="translate(1034.8 475)" filter="url(#shadow)"><rect width="48" height="58" rx="5" fill="#fffdf8" stroke="#d7d0bd"/><rect x="5" y="5" width="38" height="31" rx="3" fill="#8b8060" opacity=".92"/><circle cx="24.0" cy="17" r="7" fill="#f3d0b0"/><path d="M15.0 28q9-9 18 0v8H15.0Z" fill="#213f43" opacity=".85"/><rect x="8" y="43" width="32" height="3" rx="1.5" fill="#5e584d" opacity=".55"/><rect x="12" y="50" width="24" height="2" rx="1" fill="#a39b8b" opacity=".55"/></g><g transform="translate(1096.0 475)" filter="url(#shadow)"><rect width="48" height="58" rx="5" fill="#fffdf8" stroke="#d7d0bd"/><rect x="5" y="5" width="38" height="31" rx="3" fill="#57816a" opacity=".92"/><circle cx="24.0" cy="17" r="7" fill="#f3d0b0"/><path d="M15.0 28q9-9 18 0v8H15.0Z" fill="#213f43" opacity=".85"/><rect x="8" y="43" width="32" height="3" rx="1.5" fill="#5e584d" opacity=".55"/><rect x="12" y="50" width="24" height="2" rx="1" fill="#a39b8b" opacity=".55"/></g><g transform="translate(23.5 600)" filter="url(#shadow)"><rect width="43" height="58" rx="5" fill="#fffdf8" stroke="#d7d0bd"/><rect x="5" y="5" width="33" height="31" rx="3" fill="#4d7d7c" opacity=".92"/><circle cx="21.5" cy="17" r="7" fill="#f3d0b0"/><path d="M12.5 28q9-9 18 0v8H12.5Z" fill="#213f43" opacity=".85"/><rect x="8" y="43" width="27" height="3" rx="1.5" fill="#5e584d" opacity=".55"/><rect x="12" y="50" width="19" height="2" rx="1" fill="#a39b8b" opacity=".55"/></g><g transform="translate(71.8 600)" filter="url(#shadow)"><rect width="43" height="58" rx="5" fill="#fffdf8" stroke="#d7d0bd"/><rect x="5" y="5" width="33" height="31" rx="3" fill="#c5a04d" opacity=".92"/><circle cx="21.5" cy="17" r="7" fill="#f3d0b0"/><path d="M12.5 28q9-9 18 0v8H12.5Z" fill="#213f43" opacity=".85"/><rect x="8" y="43" width="27" height="3" rx="1.5" fill="#5e584d" opacity=".55"/><rect x="12" y="50" width="19" height="2" rx="1" fill="#a39b8b" opacity=".55"/></g><g transform="translate(120.0 600)" filter="url(#shadow)"><rect width="43" height="58" rx="5" fill="#fffdf8" stroke="#d7d0bd"/><rect x="5" y="5" width="33" height="31" rx="3" fill="#7d6a97" opacity=".92"/><circle cx="21.5" cy="17" r="7" fill="#f3d0b0"/><path d="M12.5 28q9-9 18 0v8H12.5Z" fill="#213f43" opacity=".85"/><rect x="8" y="43" width="27" height="3" rx="1.5" fill="#5e584d" opacity=".55"/><rect x="12" y="50" width="19" height="2" rx="1" fill="#a39b8b" opacity=".55"/></g><g transform="translate(168.3 600)" filter="url(#shadow)"><rect width="43" height="58" rx="5" fill="#fffdf8" stroke="#d7d0bd"/><rect x="5" y="5" width="33" height="31" rx="3" fill="#b67969" opacity=".92"/><circle cx="21.5" cy="17" r="7" fill="#f3d0b0"/><path d="M12.5 28q9-9 18 0v8H12.5Z" fill="#213f43" opacity=".85"/><rect x="8" y="43" width="27" height="3" rx="1.5" fill="#5e584d" opacity=".55"/><rect x="12" y="50" width="19" height="2" rx="1" fill="#a39b8b" opacity=".55"/></g><g transform="translate(216.5 600)" filter="url(#shadow)"><rect width="43" height="58" rx="5" fill="#fffdf8" stroke="#d7d0bd"/><rect x="5" y="5" width="33" height="31" rx="3" fill="#5f879e" opacity=".92"/><circle cx="21.5" cy="17" r="7" fill="#f3d0b0"/><path d="M12.5 28q9-9 18 0v8H12.5Z" fill="#213f43" opacity=".85"/><rect x="8" y="43" width="27" height="3" rx="1.5" fill="#5e584d" opacity=".55"/><rect x="12" y="50" width="19" height="2" rx="1" fill="#a39b8b" opacity=".55"/></g><g transform="translate(264.8 600)" filter="url(#shadow)"><rect width="43" height="58" rx="5" fill="#fffdf8" stroke="#d7d0bd"/><rect x="5" y="5" width="33" height="31" rx="3" fill="#8b8060" opacity=".92"/><circle cx="21.5" cy="17" r="7" fill="#f3d0b0"/><path d="M12.5 28q9-9 18 0v8H12.5Z" fill="#213f43" opacity=".85"/><rect x="8" y="43" width="27" height="3" rx="1.5" fill="#5e584d" opacity=".55"/><rect x="12" y="50" width="19" height="2" rx="1" fill="#a39b8b" opacity=".55"/></g><g transform="translate(313.1 600)" filter="url(#shadow)"><rect width="43" height="58" rx="5" fill="#fffdf8" stroke="#d7d0bd"/><rect x="5" y="5" width="33" height="31" rx="3" fill="#57816a" opacity=".92"/><circle cx="21.5" cy="17" r="7" fill="#f3d0b0"/><path d="M12.5 28q9-9 18 0v8H12.5Z" fill="#213f43" opacity=".85"/><rect x="8" y="43" width="27" height="3" rx="1.5" fill="#5e584d" opacity=".55"/><rect x="12" y="50" width="19" height="2" rx="1" fill="#a39b8b" opacity=".55"/></g><g transform="translate(361.3 600)" filter="url(#shadow)"><rect width="43" height="58" rx="5" fill="#fffdf8" stroke="#d7d0bd"/><rect x="5" y="5" width="33" height="31" rx="3" fill="#9e6f5f" opacity=".92"/><circle cx="21.5" cy="17" r="7" fill="#f3d0b0"/><path d="M12.5 28q9-9 18 0v8H12.5Z" fill="#213f43" opacity=".85"/><rect x="8" y="43" width="27" height="3" rx="1.5" fill="#5e584d" opacity=".55"/><rect x="12" y="50" width="19" height="2" rx="1" fill="#a39b8b" opacity=".55"/></g><g transform="translate(409.6 600)" filter="url(#shadow)"><rect width="43" height="58" rx="5" fill="#fffdf8" stroke="#d7d0bd"/><rect x="5" y="5" width="33" height="31" rx="3" fill="#4d7d7c" opacity=".92"/><circle cx="21.5" cy="17" r="7" fill="#f3d0b0"/><path d="M12.5 28q9-9 18 0v8H12.5Z" fill="#213f43" opacity=".85"/><rect x="8" y="43" width="27" height="3" rx="1.5" fill="#5e584d" opacity=".55"/><rect x="12" y="50" width="19" height="2" rx="1" fill="#a39b8b" opacity=".55"/></g><g transform="translate(457.8 600)" filter="url(#shadow)"><rect width="43" height="58" rx="5" fill="#fffdf8" stroke="#d7d0bd"/><rect x="5" y="5" width="33" height="31" rx="3" fill="#c5a04d" opacity=".92"/><circle cx="21.5" cy="17" r="7" fill="#f3d0b0"/><path d="M12.5 28q9-9 18 0v8H12.5Z" fill="#213f43" opacity=".85"/><rect x="8" y="43" width="27" height="3" rx="1.5" fill="#5e584d" opacity=".55"/><rect x="12" y="50" width="19" height="2" rx="1" fill="#a39b8b" opacity=".55"/></g><g transform="translate(506.1 600)" filter="url(#shadow)"><rect width="43" height="58" rx="5" fill="#fffdf8" stroke="#d7d0bd"/><rect x="5" y="5" width="33" height="31" rx="3" fill="#7d6a97" opacity=".92"/><circle cx="21.5" cy="17" r="7" fill="#f3d0b0"/><path d="M12.5 28q9-9 18 0v8H12.5Z" fill="#213f43" opacity=".85"/><rect x="8" y="43" width="27" height="3" rx="1.5" fill="#5e584d" opacity=".55"/><rect x="12" y="50" width="19" height="2" rx="1" fill="#a39b8b" opacity=".55"/></g><g transform="translate(554.4 600)" filter="url(#shadow)"><rect width="43" height="58" rx="5" fill="#fffdf8" stroke="#d7d0bd"/><rect x="5" y="5" width="33" height="31" rx="3" fill="#b67969" opacity=".92"/><circle cx="21.5" cy="17" r="7" fill="#f3d0b0"/><path d="M12.5 28q9-9 18 0v8H12.5Z" fill="#213f43" opacity=".85"/><rect x="8" y="43" width="27" height="3" rx="1.5" fill="#5e584d" opacity=".55"/><rect x="12" y="50" width="19" height="2" rx="1" fill="#a39b8b" opacity=".55"/></g><g transform="translate(602.6 600)" filter="url(#shadow)"><rect width="43" height="58" rx="5" fill="#fffdf8" stroke="#d7d0bd"/><rect x="5" y="5" width="33" height="31" rx="3" fill="#5f879e" opacity=".92"/><circle cx="21.5" cy="17" r="7" fill="#f3d0b0"/><path d="M12.5 28q9-9 18 0v8H12.5Z" fill="#213f43" opacity=".85"/><rect x="8" y="43" width="27" height="3" rx="1.5" fill="#5e584d" opacity=".55"/><rect x="12" y="50" width="19" height="2" rx="1" fill="#a39b8b" opacity=".55"/></g><g transform="translate(650.9 600)" filter="url(#shadow)"><rect width="43" height="58" rx="5" fill="#fffdf8" stroke="#d7d0bd"/><rect x="5" y="5" width="33" height="31" rx="3" fill="#8b8060" opacity=".92"/><circle cx="21.5" cy="17" r="7" fill="#f3d0b0"/><path d="M12.5 28q9-9 18 0v8H12.5Z" fill="#213f43" opacity=".85"/><rect x="8" y="43" width="27" height="3" rx="1.5" fill="#5e584d" opacity=".55"/><rect x="12" y="50" width="19" height="2" rx="1" fill="#a39b8b" opacity=".55"/></g><g transform="translate(699.2 600)" filter="url(#shadow)"><rect width="43" height="58" rx="5" fill="#fffdf8" stroke="#d7d0bd"/><rect x="5" y="5" width="33" height="31" rx="3" fill="#57816a" opacity=".92"/><circle cx="21.5" cy="17" r="7" fill="#f3d0b0"/><path d="M12.5 28q9-9 18 0v8H12.5Z" fill="#213f43" opacity=".85"/><rect x="8" y="43" width="27" height="3" rx="1.5" fill="#5e584d" opacity=".55"/><rect x="12" y="50" width="19" height="2" rx="1" fill="#a39b8b" opacity=".55"/></g><g transform="translate(747.4 600)" filter="url(#shadow)"><rect width="43" height="58" rx="5" fill="#fffdf8" stroke="#d7d0bd"/><rect x="5" y="5" width="33" height="31" rx="3" fill="#9e6f5f" opacity=".92"/><circle cx="21.5" cy="17" r="7" fill="#f3d0b0"/><path d="M12.5 28q9-9 18 0v8H12.5Z" fill="#213f43" opacity=".85"/><rect x="8" y="43" width="27" height="3" rx="1.5" fill="#5e584d" opacity=".55"/><rect x="12" y="50" width="19" height="2" rx="1" fill="#a39b8b" opacity=".55"/></g><g transform="translate(795.7 600)" filter="url(#shadow)"><rect width="43" height="58" rx="5" fill="#fffdf8" stroke="#d7d0bd"/><rect x="5" y="5" width="33" height="31" rx="3" fill="#4d7d7c" opacity=".92"/><circle cx="21.5" cy="17" r="7" fill="#f3d0b0"/><path d="M12.5 28q9-9 18 0v8H12.5Z" fill="#213f43" opacity=".85"/><rect x="8" y="43" width="27" height="3" rx="1.5" fill="#5e584d" opacity=".55"/><rect x="12" y="50" width="19" height="2" rx="1" fill="#a39b8b" opacity=".55"/></g><g transform="translate(843.9 600)" filter="url(#shadow)"><rect width="43" height="58" rx="5" fill="#fffdf8" stroke="#d7d0bd"/><rect x="5" y="5" width="33" height="31" rx="3" fill="#c5a04d" opacity=".92"/><circle cx="21.5" cy="17" r="7" fill="#f3d0b0"/><path d="M12.5 28q9-9 18 0v8H12.5Z" fill="#213f43" opacity=".85"/><rect x="8" y="43" width="27" height="3" rx="1.5" fill="#5e584d" opacity=".55"/><rect x="12" y="50" width="19" height="2" rx="1" fill="#a39b8b" opacity=".55"/></g><g transform="translate(892.2 600)" filter="url(#shadow)"><rect width="43" height="58" rx="5" fill="#fffdf8" stroke="#d7d0bd"/><rect x="5" y="5" width="33" height="31" rx="3" fill="#7d6a97" opacity=".92"/><circle cx="21.5" cy="17" r="7" fill="#f3d0b0"/><path d="M12.5 28q9-9 18 0v8H12.5Z" fill="#213f43" opacity=".85"/><rect x="8" y="43" width="27" height="3" rx="1.5" fill="#5e584d" opacity=".55"/><rect x="12" y="50" width="19" height="2" rx="1" fill="#a39b8b" opacity=".55"/></g><g transform="translate(940.5 600)" filter="url(#shadow)"><rect width="43" height="58" rx="5" fill="#fffdf8" stroke="#d7d0bd"/><rect x="5" y="5" width="33" height="31" rx="3" fill="#b67969" opacity=".92"/><circle cx="21.5" cy="17" r="7" fill="#f3d0b0"/><path d="M12.5 28q9-9 18 0v8H12.5Z" fill="#213f43" opacity=".85"/><rect x="8" y="43" width="27" height="3" rx="1.5" fill="#5e584d" opacity=".55"/><rect x="12" y="50" width="19" height="2" rx="1" fill="#a39b8b" opacity=".55"/></g><g transform="translate(988.7 600)" filter="url(#shadow)"><rect width="43" height="58" rx="5" fill="#fffdf8" stroke="#d7d0bd"/><rect x="5" y="5" width="33" height="31" rx="3" fill="#5f879e" opacity=".92"/><circle cx="21.5" cy="17" r="7" fill="#f3d0b0"/><path d="M12.5 28q9-9 18 0v8H12.5Z" fill="#213f43" opacity=".85"/><rect x="8" y="43" width="27" height="3" rx="1.5" fill="#5e584d" opacity=".55"/><rect x="12" y="50" width="19" height="2" rx="1" fill="#a39b8b" opacity=".55"/></g><g transform="translate(1037.0 600)" filter="url(#shadow)"><rect width="43" height="58" rx="5" fill="#fffdf8" stroke="#d7d0bd"/><rect x="5" y="5" width="33" height="31" rx="3" fill="#8b8060" opacity=".92"/><circle cx="21.5" cy="17" r="7" fill="#f3d0b0"/><path d="M12.5 28q9-9 18 0v8H12.5Z" fill="#213f43" opacity=".85"/><rect x="8" y="43" width="27" height="3" rx="1.5" fill="#5e584d" opacity=".55"/><rect x="12" y="50" width="19" height="2" rx="1" fill="#a39b8b" opacity=".55"/></g><g transform="translate(1085.2 600)" filter="url(#shadow)"><rect width="43" height="58" rx="5" fill="#fffdf8" stroke="#d7d0bd"/><rect x="5" y="5" width="33" height="31" rx="3" fill="#57816a" opacity=".92"/><circle cx="21.5" cy="17" r="7" fill="#f3d0b0"/><path d="M12.5 28q9-9 18 0v8H12.5Z" fill="#213f43" opacity=".85"/><rect x="8" y="43" width="27" height="3" rx="1.5" fill="#5e584d" opacity=".55"/><rect x="12" y="50" width="19" height="2" rx="1" fill="#a39b8b" opacity=".55"/></g><g transform="translate(1133.5 600)" filter="url(#shadow)"><rect width="43" height="58" rx="5" fill="#fffdf8" stroke="#d7d0bd"/><rect x="5" y="5" width="33" height="31" rx="3" fill="#9e6f5f" opacity=".92"/><circle cx="21.5" cy="17" r="7" fill="#f3d0b0"/><path d="M12.5 28q9-9 18 0v8H12.5Z" fill="#213f43" opacity=".85"/><rect x="8" y="43" width="27" height="3" rx="1.5" fill="#5e584d" opacity=".55"/><rect x="12" y="50" width="19" height="2" rx="1" fill="#a39b8b" opacity=".55"/></g><g transform="translate(127.0 730)" filter="url(#shadow)"><rect width="46" height="58" rx="5" fill="#fffdf8" stroke="#d7d0bd"/><rect x="5" y="5" width="36" height="31" rx="3" fill="#b67969" opacity=".92"/><circle cx="23.0" cy="17" r="7" fill="#f3d0b0"/><path d="M14.0 28q9-9 18 0v8H14.0Z" fill="#213f43" opacity=".85"/><rect x="8" y="43" width="30" height="3" rx="1.5" fill="#5e584d" opacity=".55"/><rect x="12" y="50" width="22" height="2" rx="1" fill="#a39b8b" opacity=".55"/></g><g transform="translate(217.0 730)" filter="url(#shadow)"><rect width="46" height="58" rx="5" fill="#fffdf8" stroke="#d7d0bd"/><rect x="5" y="5" width="36" height="31" rx="3" fill="#5f879e" opacity=".92"/><circle cx="23.0" cy="17" r="7" fill="#f3d0b0"/><path d="M14.0 28q9-9 18 0v8H14.0Z" fill="#213f43" opacity=".85"/><rect x="8" y="43" width="30" height="3" rx="1.5" fill="#5e584d" opacity=".55"/><rect x="12" y="50" width="22" height="2" rx="1" fill="#a39b8b" opacity=".55"/></g><g transform="translate(307.0 730)" filter="url(#shadow)"><rect width="46" height="58" rx="5" fill="#fffdf8" stroke="#d7d0bd"/><rect x="5" y="5" width="36" height="31" rx="3" fill="#8b8060" opacity=".92"/><circle cx="23.0" cy="17" r="7" fill="#f3d0b0"/><path d="M14.0 28q9-9 18 0v8H14.0Z" fill="#213f43" opacity=".85"/><rect x="8" y="43" width="30" height="3" rx="1.5" fill="#5e584d" opacity=".55"/><rect x="12" y="50" width="22" height="2" rx="1" fill="#a39b8b" opacity=".55"/></g><g transform="translate(397.0 730)" filter="url(#shadow)"><rect width="46" height="58" rx="5" fill="#fffdf8" stroke="#d7d0bd"/><rect x="5" y="5" width="36" height="31" rx="3" fill="#57816a" opacity=".92"/><circle cx="23.0" cy="17" r="7" fill="#f3d0b0"/><path d="M14.0 28q9-9 18 0v8H14.0Z" fill="#213f43" opacity=".85"/><rect x="8" y="43" width="30" height="3" rx="1.5" fill="#5e584d" opacity=".55"/><rect x="12" y="50" width="22" height="2" rx="1" fill="#a39b8b" opacity=".55"/></g><g transform="translate(487.0 730)" filter="url(#shadow)"><rect width="46" height="58" rx="5" fill="#fffdf8" stroke="#d7d0bd"/><rect x="5" y="5" width="36" height="31" rx="3" fill="#9e6f5f" opacity=".92"/><circle cx="23.0" cy="17" r="7" fill="#f3d0b0"/><path d="M14.0 28q9-9 18 0v8H14.0Z" fill="#213f43" opacity=".85"/><rect x="8" y="43" width="30" height="3" rx="1.5" fill="#5e584d" opacity=".55"/><rect x="12" y="50" width="22" height="2" rx="1" fill="#a39b8b" opacity=".55"/></g><g transform="translate(577.0 730)" filter="url(#shadow)"><rect width="46" height="58" rx="5" fill="#fffdf8" stroke="#d7d0bd"/><rect x="5" y="5" width="36" height="31" rx="3" fill="#4d7d7c" opacity=".92"/><circle cx="23.0" cy="17" r="7" fill="#f3d0b0"/><path d="M14.0 28q9-9 18 0v8H14.0Z" fill="#213f43" opacity=".85"/><rect x="8" y="43" width="30" height="3" rx="1.5" fill="#5e584d" opacity=".55"/><rect x="12" y="50" width="22" height="2" rx="1" fill="#a39b8b" opacity=".55"/></g><g transform="translate(667.0 730)" filter="url(#shadow)"><rect width="46" height="58" rx="5" fill="#fffdf8" stroke="#d7d0bd"/><rect x="5" y="5" width="36" height="31" rx="3" fill="#c5a04d" opacity=".92"/><circle cx="23.0" cy="17" r="7" fill="#f3d0b0"/><path d="M14.0 28q9-9 18 0v8H14.0Z" fill="#213f43" opacity=".85"/><rect x="8" y="43" width="30" height="3" rx="1.5" fill="#5e584d" opacity=".55"/><rect x="12" y="50" width="22" height="2" rx="1" fill="#a39b8b" opacity=".55"/></g><g transform="translate(757.0 730)" filter="url(#shadow)"><rect width="46" height="58" rx="5" fill="#fffdf8" stroke="#d7d0bd"/><rect x="5" y="5" width="36" height="31" rx="3" fill="#7d6a97" opacity=".92"/><circle cx="23.0" cy="17" r="7" fill="#f3d0b0"/><path d="M14.0 28q9-9 18 0v8H14.0Z" fill="#213f43" opacity=".85"/><rect x="8" y="43" width="30" height="3" rx="1.5" fill="#5e584d" opacity=".55"/><rect x="12" y="50" width="22" height="2" rx="1" fill="#a39b8b" opacity=".55"/></g><g transform="translate(847.0 730)" filter="url(#shadow)"><rect width="46" height="58" rx="5" fill="#fffdf8" stroke="#d7d0bd"/><rect x="5" y="5" width="36" height="31" rx="3" fill="#b67969" opacity=".92"/><circle cx="23.0" cy="17" r="7" fill="#f3d0b0"/><path d="M14.0 28q9-9 18 0v8H14.0Z" fill="#213f43" opacity=".85"/><rect x="8" y="43" width="30" height="3" rx="1.5" fill="#5e584d" opacity=".55"/><rect x="12" y="50" width="22" height="2" rx="1" fill="#a39b8b" opacity=".55"/></g><g transform="translate(937.0 730)" filter="url(#shadow)"><rect width="46" height="58" rx="5" fill="#fffdf8" stroke="#d7d0bd"/><rect x="5" y="5" width="36" height="31" rx="3" fill="#5f879e" opacity=".92"/><circle cx="23.0" cy="17" r="7" fill="#f3d0b0"/><path d="M14.0 28q9-9 18 0v8H14.0Z" fill="#213f43" opacity=".85"/><rect x="8" y="43" width="30" height="3" rx="1.5" fill="#5e584d" opacity=".55"/><rect x="12" y="50" width="22" height="2" rx="1" fill="#a39b8b" opacity=".55"/></g><g transform="translate(1027.0 730)" filter="url(#shadow)"><rect width="46" height="58" rx="5" fill="#fffdf8" stroke="#d7d0bd"/><rect x="5" y="5" width="36" height="31" rx="3" fill="#8b8060" opacity=".92"/><circle cx="23.0" cy="17" r="7" fill="#f3d0b0"/><path d="M14.0 28q9-9 18 0v8H14.0Z" fill="#213f43" opacity=".85"/><rect x="8" y="43" width="30" height="3" rx="1.5" fill="#5e584d" opacity=".55"/><rect x="12" y="50" width="22" height="2" rx="1" fill="#a39b8b" opacity=".55"/></g>
<g transform="translate(1032 815)"><circle cx="34" cy="34" r="27" fill="#fffdf7" stroke="#0e5158" stroke-width="3"/><text x="34" y="43" text-anchor="middle" font-family="Georgia, serif" font-size="28" font-weight="700" fill="#0e5158">i</text></g>
<rect x="38" y="826" width="255" height="42" rx="21" fill="#fffdf7" stroke="#d7d0bd"/><circle cx="62" cy="847" r="8" fill="#c9a445"/><text x="80" y="852" font-family="Arial, sans-serif" font-size="14" font-weight="700" fill="#0e5158">115 public profiles · Full map</text>
</svg>